<mxfile host="app.diagrams.net" modified="2024-05-18T11:46:06.493Z" agent="Mozilla/5.0 (Windows NT 10.0; Win64; x64) AppleWebKit/537.36 (KHTML, like Gecko) Chrome/125.0.0.0 Safari/537.36" etag="GjFXf1Z3tDgRQYybzvlY" version="24.4.4" type="github">
  <diagram name="Seite-1" id="6TWZkrGFnJNyo3eU7zf7">
    <mxGraphModel dx="1436" dy="727" grid="1" gridSize="10" guides="1" tooltips="1" connect="1" arrows="1" fold="1" page="1" pageScale="1" pageWidth="840" pageHeight="1000" math="0" shadow="0">
      <root>
        <mxCell id="0" />
        <mxCell id="1" parent="0" />
        <mxCell id="zQ9of0heOYMWUSIYJV7x-1" value="Individuelle Schicht anlegen" style="shape=umlFrame;whiteSpace=wrap;html=1;pointerEvents=0;width=160;height=30;align=left;" vertex="1" parent="1">
          <mxGeometry x="20" y="50" width="390" height="660" as="geometry" />
        </mxCell>
        <mxCell id="zQ9of0heOYMWUSIYJV7x-9" style="edgeStyle=orthogonalEdgeStyle;rounded=0;orthogonalLoop=1;jettySize=auto;html=1;entryX=0.5;entryY=0;entryDx=0;entryDy=0;endArrow=open;endFill=0;" edge="1" parent="1" source="zQ9of0heOYMWUSIYJV7x-2" target="zQ9of0heOYMWUSIYJV7x-4">
          <mxGeometry relative="1" as="geometry" />
        </mxCell>
        <mxCell id="zQ9of0heOYMWUSIYJV7x-2" value="" style="ellipse;fillColor=strokeColor;html=1;" vertex="1" parent="1">
          <mxGeometry x="270" y="94" width="20" height="20" as="geometry" />
        </mxCell>
        <mxCell id="zQ9of0heOYMWUSIYJV7x-10" style="edgeStyle=orthogonalEdgeStyle;rounded=0;orthogonalLoop=1;jettySize=auto;html=1;entryX=0.5;entryY=0;entryDx=0;entryDy=0;strokeColor=default;align=center;verticalAlign=middle;fontFamily=Helvetica;fontSize=11;fontColor=default;labelBackgroundColor=default;endArrow=open;endFill=0;" edge="1" parent="1" source="zQ9of0heOYMWUSIYJV7x-30" target="zQ9of0heOYMWUSIYJV7x-5">
          <mxGeometry relative="1" as="geometry" />
        </mxCell>
        <mxCell id="zQ9of0heOYMWUSIYJV7x-4" value="Bezeichnung eingeben" style="rounded=1;whiteSpace=wrap;html=1;" vertex="1" parent="1">
          <mxGeometry x="220" y="150" width="120" height="50" as="geometry" />
        </mxCell>
        <mxCell id="zQ9of0heOYMWUSIYJV7x-11" style="edgeStyle=orthogonalEdgeStyle;rounded=0;orthogonalLoop=1;jettySize=auto;html=1;entryX=0.5;entryY=0;entryDx=0;entryDy=0;strokeColor=default;align=center;verticalAlign=middle;fontFamily=Helvetica;fontSize=11;fontColor=default;labelBackgroundColor=default;endArrow=open;endFill=0;" edge="1" parent="1" source="zQ9of0heOYMWUSIYJV7x-5" target="zQ9of0heOYMWUSIYJV7x-6">
          <mxGeometry relative="1" as="geometry" />
        </mxCell>
        <mxCell id="zQ9of0heOYMWUSIYJV7x-5" value="Startzeit eingeben" style="rounded=1;whiteSpace=wrap;html=1;" vertex="1" parent="1">
          <mxGeometry x="220" y="310" width="120" height="40" as="geometry" />
        </mxCell>
        <mxCell id="zQ9of0heOYMWUSIYJV7x-12" style="edgeStyle=orthogonalEdgeStyle;rounded=0;orthogonalLoop=1;jettySize=auto;html=1;entryX=0.5;entryY=0;entryDx=0;entryDy=0;strokeColor=default;align=center;verticalAlign=middle;fontFamily=Helvetica;fontSize=11;fontColor=default;labelBackgroundColor=default;endArrow=open;endFill=0;" edge="1" parent="1" source="zQ9of0heOYMWUSIYJV7x-6" target="zQ9of0heOYMWUSIYJV7x-7">
          <mxGeometry relative="1" as="geometry" />
        </mxCell>
        <mxCell id="zQ9of0heOYMWUSIYJV7x-6" value="Endzeit eingeben" style="rounded=1;whiteSpace=wrap;html=1;" vertex="1" parent="1">
          <mxGeometry x="220" y="390" width="120" height="40" as="geometry" />
        </mxCell>
        <mxCell id="zQ9of0heOYMWUSIYJV7x-15" style="edgeStyle=orthogonalEdgeStyle;rounded=0;orthogonalLoop=1;jettySize=auto;html=1;entryX=0.75;entryY=0.5;entryDx=0;entryDy=0;strokeColor=default;align=center;verticalAlign=middle;fontFamily=Helvetica;fontSize=11;fontColor=default;labelBackgroundColor=default;endArrow=open;endFill=0;entryPerimeter=0;" edge="1" parent="1" source="zQ9of0heOYMWUSIYJV7x-7" target="zQ9of0heOYMWUSIYJV7x-21">
          <mxGeometry relative="1" as="geometry">
            <mxPoint x="280" y="590" as="targetPoint" />
          </mxGeometry>
        </mxCell>
        <mxCell id="zQ9of0heOYMWUSIYJV7x-16" style="edgeStyle=orthogonalEdgeStyle;rounded=0;orthogonalLoop=1;jettySize=auto;html=1;entryX=1;entryY=0.5;entryDx=0;entryDy=0;strokeColor=default;align=center;verticalAlign=middle;fontFamily=Helvetica;fontSize=11;fontColor=default;labelBackgroundColor=default;endArrow=open;endFill=0;" edge="1" parent="1" source="zQ9of0heOYMWUSIYJV7x-7" target="zQ9of0heOYMWUSIYJV7x-14">
          <mxGeometry relative="1" as="geometry" />
        </mxCell>
        <mxCell id="zQ9of0heOYMWUSIYJV7x-7" value="" style="rhombus;whiteSpace=wrap;html=1;" vertex="1" parent="1">
          <mxGeometry x="255" y="482" width="50" height="50" as="geometry" />
        </mxCell>
        <mxCell id="zQ9of0heOYMWUSIYJV7x-8" value="" style="ellipse;html=1;shape=endState;fillColor=strokeColor;" vertex="1" parent="1">
          <mxGeometry x="185" y="660" width="30" height="30" as="geometry" />
        </mxCell>
        <mxCell id="zQ9of0heOYMWUSIYJV7x-14" value="Beschreibung eingeben" style="rounded=1;whiteSpace=wrap;html=1;" vertex="1" parent="1">
          <mxGeometry x="60" y="480" width="120" height="53" as="geometry" />
        </mxCell>
        <mxCell id="zQ9of0heOYMWUSIYJV7x-26" style="edgeStyle=orthogonalEdgeStyle;rounded=0;orthogonalLoop=1;jettySize=auto;html=1;entryX=0.5;entryY=0;entryDx=0;entryDy=0;strokeColor=default;align=center;verticalAlign=middle;fontFamily=Helvetica;fontSize=11;fontColor=default;labelBackgroundColor=default;endArrow=open;endFill=0;" edge="1" parent="1" source="zQ9of0heOYMWUSIYJV7x-21" target="zQ9of0heOYMWUSIYJV7x-8">
          <mxGeometry relative="1" as="geometry" />
        </mxCell>
        <mxCell id="zQ9of0heOYMWUSIYJV7x-21" value="" style="shape=line;html=1;strokeWidth=6;strokeColor=#000000;align=center;verticalAlign=middle;fontFamily=Helvetica;fontSize=12;fontColor=default;labelBackgroundColor=default;fillColor=default;" vertex="1" parent="1">
          <mxGeometry x="40" y="600" width="320" height="10" as="geometry" />
        </mxCell>
        <mxCell id="zQ9of0heOYMWUSIYJV7x-23" style="edgeStyle=orthogonalEdgeStyle;rounded=0;orthogonalLoop=1;jettySize=auto;html=1;entryX=0.25;entryY=0.5;entryDx=0;entryDy=0;entryPerimeter=0;strokeColor=default;align=center;verticalAlign=middle;fontFamily=Helvetica;fontSize=11;fontColor=default;labelBackgroundColor=default;endArrow=open;endFill=0;" edge="1" parent="1" source="zQ9of0heOYMWUSIYJV7x-14" target="zQ9of0heOYMWUSIYJV7x-21">
          <mxGeometry relative="1" as="geometry" />
        </mxCell>
        <mxCell id="zQ9of0heOYMWUSIYJV7x-27" value="Beschreibung?" style="text;html=1;align=center;verticalAlign=middle;resizable=0;points=[];autosize=1;strokeColor=none;fillColor=none;fontFamily=Helvetica;fontSize=11;fontColor=default;labelBackgroundColor=default;" vertex="1" parent="1">
          <mxGeometry x="290" y="480" width="100" height="30" as="geometry" />
        </mxCell>
        <mxCell id="zQ9of0heOYMWUSIYJV7x-28" value="[ja]" style="text;html=1;align=center;verticalAlign=middle;resizable=0;points=[];autosize=1;strokeColor=none;fillColor=none;fontFamily=Helvetica;fontSize=11;fontColor=default;labelBackgroundColor=default;" vertex="1" parent="1">
          <mxGeometry x="200" y="480" width="40" height="30" as="geometry" />
        </mxCell>
        <mxCell id="zQ9of0heOYMWUSIYJV7x-29" value="[nein]" style="text;html=1;align=center;verticalAlign=middle;resizable=0;points=[];autosize=1;strokeColor=none;fillColor=none;fontFamily=Helvetica;fontSize=11;fontColor=default;labelBackgroundColor=default;" vertex="1" parent="1">
          <mxGeometry x="274" y="547" width="50" height="30" as="geometry" />
        </mxCell>
        <mxCell id="zQ9of0heOYMWUSIYJV7x-31" value="" style="edgeStyle=orthogonalEdgeStyle;rounded=0;orthogonalLoop=1;jettySize=auto;html=1;entryX=0.5;entryY=0;entryDx=0;entryDy=0;strokeColor=default;align=center;verticalAlign=middle;fontFamily=Helvetica;fontSize=11;fontColor=default;labelBackgroundColor=default;endArrow=open;endFill=0;" edge="1" parent="1" source="zQ9of0heOYMWUSIYJV7x-4" target="zQ9of0heOYMWUSIYJV7x-30">
          <mxGeometry relative="1" as="geometry">
            <mxPoint x="280" y="193" as="sourcePoint" />
            <mxPoint x="280" y="290" as="targetPoint" />
          </mxGeometry>
        </mxCell>
        <mxCell id="zQ9of0heOYMWUSIYJV7x-30" value="Symbol auswÃ¤hlen" style="rounded=1;whiteSpace=wrap;html=1;" vertex="1" parent="1">
          <mxGeometry x="220" y="234" width="120" height="40" as="geometry" />
        </mxCell>
      </root>
    </mxGraphModel>
  </diagram>
</mxfile>
